<svg width="21" height="20" viewBox="0 0 21 20" fill="none" xmlns="http://www.w3.org/2000/svg">
<path d="M6.8587 5.21967C6.56581 4.92678 6.09093 4.92678 5.79804 5.21967C5.50515 5.51256 5.50515 5.98744 5.79804 6.28033L9.51771 10L5.79804 13.7197C5.50515 14.0126 5.50515 14.4874 5.79804 14.7803C6.09093 15.0732 6.56581 15.0732 6.8587 14.7803L10.5784 11.0607L14.298 14.7803C14.5909 15.0732 15.0658 15.0732 15.3587 14.7803C15.6516 14.4874 15.6516 14.0126 15.3587 13.7197L11.639 10L15.3587 6.28033C15.6516 5.98744 15.6516 5.51256 15.3587 5.21967C15.0658 4.92678 14.5909 4.92678 14.298 5.21967L10.5784 8.93934L6.8587 5.21967Z" fill="#E96AF0"/>
</svg>
